<svg xmlns="http://www.w3.org/2000/svg" xmlns:xlink="http://www.w3.org/1999/xlink" width="20" height="16" viewBox="0 0 20 16" fill="none">
<path d="M10.9087 13.9485L15.7849 9.20179L1.23457 9.20179C1.19195 9.20179 1.14985 9.19967 1.10834 9.19554C0.485799 9.13401 1.28997e-06 8.62224 1.39876e-06 8.00001C1.51482e-06 7.33625 0.552733 6.79824 1.23457 6.79824L15.7849 6.79825L10.9087 2.05154C10.4266 1.58218 10.4266 0.821316 10.9087 0.351953C11.3908 -0.117313 12.1725 -0.117313 12.6546 0.351953L19.6384 7.15022C20.1205 7.61949 20.1205 8.38045 19.6384 8.84981L12.6546 15.648C12.6471 15.6553 12.6395 15.6626 12.6318 15.6697C12.5781 15.7194 12.5209 15.7635 12.461 15.802C12.1186 16.022 11.6886 16.0587 11.3171 15.912C11.1685 15.8533 11.0293 15.7653 10.9087 15.648C10.9012 15.6407 10.8938 15.6333 10.8864 15.6258C10.4267 15.155 10.4341 14.4104 10.9087 13.9485Z" fill="url(#pattern0_4_480)"/>
<path d="M10.9087 13.9485L15.7849 9.20179L1.23457 9.20179C1.19195 9.20179 1.14985 9.19967 1.10834 9.19554C0.485799 9.13401 1.28997e-06 8.62224 1.39876e-06 8.00001C1.51482e-06 7.33625 0.552733 6.79824 1.23457 6.79824L15.7849 6.79825L10.9087 2.05154C10.4266 1.58218 10.4266 0.821316 10.9087 0.351953C11.3908 -0.117313 12.1725 -0.117313 12.6546 0.351953L19.6384 7.15022C20.1205 7.61949 20.1205 8.38045 19.6384 8.84981L12.6546 15.648C12.6471 15.6553 12.6395 15.6626 12.6318 15.6697C12.5781 15.7194 12.5209 15.7635 12.461 15.802C12.1186 16.022 11.6886 16.0587 11.3171 15.912C11.1685 15.8533 11.0293 15.7653 10.9087 15.648C10.9012 15.6407 10.8938 15.6333 10.8864 15.6258C10.4267 15.155 10.4341 14.4104 10.9087 13.9485Z" fill="white"/>
</svg>