<svg xmlns="http://www.w3.org/2000/svg" width="22" height="22" viewBox="0 0 22 22" fill="none">
  <path d="M7.72756 3.30225C7.37878 3.30963 7.03335 3.35629 6.70068 3.44156C6.51672 3.48856 6.40594 3.67587 6.45294 3.85983C6.49255 4.01526 6.63253 4.11832 6.78561 4.11832C6.8138 4.11832 6.84268 4.11496 6.87121 4.10757C7.15286 4.0354 7.44558 3.99579 7.74166 3.98975C7.93166 3.98572 8.08239 3.82861 8.07836 3.63895C8.07433 3.44961 7.92226 3.30493 7.72756 3.30225Z" fill="#212121"/>
  <path d="M5.13946 4.19019C4.96759 4.31851 4.80209 4.46228 4.64767 4.6168C3.95245 5.31317 3.51337 6.19697 3.37808 7.17215C3.3519 7.36027 3.48315 7.53394 3.67114 7.56014C3.68726 7.56249 3.70303 7.5635 3.71881 7.5635C3.88766 7.5635 4.03503 7.43887 4.05887 7.26688C4.17367 6.44085 4.54529 5.69276 5.13376 5.10322C5.26502 4.97187 5.40533 4.84993 5.55103 4.7411C5.70309 4.62755 5.73431 4.41189 5.62051 4.25972C5.50671 4.10789 5.29187 4.07597 5.13946 4.19019Z" fill="#212121"/>
  <path d="M14.0276 12.6156C16.4063 9.54036 16.1829 5.1133 13.3641 2.29609C10.3082 -0.765363 5.35134 -0.765363 2.29196 2.29609C-0.763985 5.3541 -0.763985 10.3143 2.29196 13.3757C5.08664 16.1689 9.46602 16.4097 12.5322 14.0981L13.3504 15.0372L14.9626 13.4274L14.0276 12.6156ZM11.9341 11.9413C9.66537 14.2082 5.99066 14.2082 3.72541 11.9413C1.46006 9.67452 1.46006 5.99734 3.72541 3.72705C5.99066 1.46021 9.66538 1.46021 11.9341 3.72705C14.1995 5.99734 14.1995 9.67452 11.9341 11.9413Z" fill="#212121"/>
  <path d="M21.6346 18.5734L16.224 13.7817C16.0315 13.6132 15.7359 13.6201 15.5537 13.8058L13.7971 15.5636C13.615 15.7493 13.6046 16.0417 13.7765 16.2378L18.5787 21.6383C18.9843 22.0992 19.6959 22.1233 20.1325 21.6899L21.6862 20.1351C22.1228 19.6982 22.1021 18.9827 21.6346 18.5734Z" fill="#212121"/>
</svg>