<svg width="17" height="19" viewBox="0 0 17 19" fill="none" xmlns="http://www.w3.org/2000/svg">
<path fill-rule="evenodd" clip-rule="evenodd" d="M12.8201 0.477004C9.97485 -0.159001 7.0243 -0.159001 4.17908 0.477004L3.87251 0.54483C3.07218 0.723764 2.33713 1.12106 1.74899 1.69259C1.16086 2.26412 0.742685 2.9875 0.540912 3.78237C-0.180304 6.62429 -0.180304 9.60134 0.540912 12.4433C0.733334 13.2013 1.12277 13.8951 1.66974 14.4541C2.21671 15.0131 2.90177 15.4176 3.65547 15.6265L4.07599 18.137C4.08941 18.2167 4.12396 18.2914 4.17604 18.3532C4.22811 18.415 4.29582 18.4618 4.37209 18.4886C4.44837 18.5153 4.53043 18.5212 4.60972 18.5055C4.68902 18.4898 4.76266 18.4531 4.82297 18.3993L7.29273 16.19C9.14672 16.3031 11.0074 16.1548 12.8201 15.7495L13.1275 15.6817C13.9279 15.5028 14.6629 15.1055 15.2511 14.534C15.8392 13.9624 16.2574 13.239 16.4591 12.4442C17.1803 9.60224 17.1803 6.62521 16.4591 3.78328C16.2573 2.98829 15.839 2.26483 15.2507 1.69329C14.6624 1.12175 13.9271 0.724519 13.1266 0.545734L12.8201 0.477004ZM4.94235 3.70912C4.77427 3.68466 4.60289 3.71849 4.45671 3.80498H4.44405C4.10493 4.00394 3.79926 4.25444 3.53881 4.54926C3.32176 4.79976 3.2042 5.05298 3.17345 5.29715C3.15537 5.44184 3.16803 5.58835 3.21053 5.72671L3.22681 5.73575C3.47098 6.4529 3.78931 7.14291 4.17818 7.79223C4.67959 8.70425 5.29663 9.54773 6.01399 10.3018L6.0357 10.3325L6.07006 10.3578L6.09086 10.3823L6.11618 10.404C6.87287 11.1235 7.71833 11.7435 8.63206 12.2488C9.67658 12.8177 10.3105 13.0862 10.6912 13.1984V13.2038C10.8025 13.2382 10.9038 13.2536 11.006 13.2536C11.3302 13.2296 11.6371 13.0978 11.8777 12.8792C12.1717 12.6187 12.4204 12.3121 12.6139 11.9712V11.9649C12.7957 11.6212 12.7342 11.2975 12.4719 11.0777C11.9451 10.6174 11.3755 10.2086 10.7708 9.85684C10.3657 9.63709 9.95421 9.77002 9.78781 9.99249L9.43241 10.441C9.24973 10.6635 8.91874 10.6328 8.91874 10.6328L8.9097 10.6382C6.43994 10.0079 5.78067 7.50736 5.78067 7.50736C5.78067 7.50736 5.74992 7.16733 5.97872 6.99369L6.42366 6.63557C6.63708 6.46194 6.7854 6.05137 6.5566 5.64622C6.20716 5.041 5.79916 4.47155 5.33845 3.94606C5.23797 3.82239 5.09705 3.73816 4.94054 3.70822L4.94235 3.70912ZM9.11498 2.6221C8.99506 2.6221 8.88005 2.66974 8.79525 2.75454C8.71045 2.83934 8.66281 2.95435 8.66281 3.07427C8.66281 3.1942 8.71045 3.30921 8.79525 3.39401C8.88005 3.47881 8.99506 3.52645 9.11498 3.52645C10.259 3.52645 11.2085 3.89994 11.96 4.61618C12.3462 5.00776 12.6473 5.47169 12.8445 5.97993C13.0425 6.48907 13.133 7.03258 13.1095 7.57699C13.107 7.63637 13.1162 7.69566 13.1366 7.75148C13.157 7.80729 13.1882 7.85854 13.2285 7.90229C13.3097 7.99065 13.4227 8.04312 13.5426 8.04816C13.6626 8.05319 13.7796 8.01038 13.8679 7.92915C13.9563 7.84791 14.0088 7.7349 14.0138 7.61498C14.0419 6.9453 13.9307 6.27708 13.6873 5.65255C13.4429 5.02506 13.0723 4.45441 12.5985 3.9759L12.5895 3.96686C11.6571 3.07608 10.4769 2.6221 9.11498 2.6221ZM9.08423 4.10884C8.96431 4.10884 8.8493 4.15648 8.7645 4.24128C8.6797 4.32608 8.63206 4.44109 8.63206 4.56101C8.63206 4.68094 8.6797 4.79595 8.7645 4.88075C8.8493 4.96555 8.96431 5.01319 9.08423 5.01319H9.09961C9.92437 5.07197 10.5249 5.34689 10.9454 5.79815C11.3767 6.26299 11.6001 6.84086 11.5829 7.55529C11.5802 7.67521 11.6252 7.79132 11.708 7.87807C11.7909 7.96482 11.9048 8.0151 12.0247 8.01786C12.1446 8.02062 12.2607 7.97563 12.3475 7.89278C12.4342 7.80993 12.4845 7.69601 12.4873 7.57609C12.509 6.63829 12.2069 5.8289 11.6083 5.1832V5.18139C10.996 4.52484 10.1559 4.17757 9.14482 4.10975L9.12945 4.10794L9.08423 4.10884ZM9.06705 5.62362C9.00654 5.61828 8.94557 5.62519 8.88778 5.64393C8.83 5.66267 8.77659 5.69287 8.73073 5.73271C8.68488 5.77256 8.64752 5.82123 8.62089 5.87583C8.59426 5.93044 8.57891 5.98984 8.57575 6.05051C8.57259 6.11117 8.58168 6.17186 8.60249 6.22893C8.6233 6.286 8.6554 6.3383 8.69687 6.38269C8.73833 6.42708 8.78832 6.46267 8.84384 6.48732C8.89936 6.51196 8.95928 6.52517 9.02003 6.52615C9.39804 6.54605 9.6395 6.65999 9.79143 6.81283C9.94426 6.96656 10.0582 7.21345 10.079 7.5996C10.0801 7.66028 10.0935 7.72012 10.1182 7.77554C10.143 7.83095 10.1786 7.88083 10.223 7.92218C10.2675 7.96353 10.3197 7.99551 10.3768 8.01622C10.4338 8.03693 10.4945 8.04595 10.5551 8.04273C10.6157 8.03951 10.675 8.02412 10.7296 7.99749C10.7841 7.97085 10.8327 7.93351 10.8725 7.88768C10.9123 7.84186 10.9425 7.7885 10.9612 7.73077C10.9799 7.67304 10.9868 7.61213 10.9815 7.55167C10.9526 7.00907 10.7826 6.52977 10.4344 6.17707C10.0844 5.82438 9.60785 5.65255 9.06705 5.62362Z" fill="white"/>
</svg>
