<svg width="20" height="16" viewBox="0 0 20 16" fill="none" xmlns="http://www.w3.org/2000/svg">
<path d="M9.99994 0C10.8549 0 11.7319 0.0220001 12.5819 0.0580001L13.5859 0.106L14.5469 0.163L15.4469 0.224L16.2689 0.288C17.161 0.356278 18.0004 0.736947 18.6395 1.36304C19.2785 1.98913 19.6764 2.82054 19.7629 3.711L19.8029 4.136L19.8779 5.046C19.9479 5.989 19.9999 7.017 19.9999 8C19.9999 8.983 19.9479 10.011 19.8779 10.954L19.8029 11.864C19.7899 12.01 19.7769 12.151 19.7629 12.289C19.6763 13.1796 19.2784 14.0112 18.6391 14.6373C17.9998 15.2634 17.1602 15.6439 16.2679 15.712L15.4479 15.775L14.5479 15.837L13.5859 15.894L12.5819 15.942C11.7218 15.9794 10.8609 15.9987 9.99994 16C9.13896 15.9987 8.27811 15.9794 7.41794 15.942L6.41394 15.894L5.45294 15.837L4.55294 15.775L3.73094 15.712C2.83889 15.6437 1.99949 15.2631 1.36041 14.637C0.721332 14.0109 0.323513 13.1795 0.236939 12.289L0.196939 11.864L0.121939 10.954C0.0454765 9.97114 0.00478298 8.98582 -6.10352e-05 8C-6.10352e-05 7.017 0.0519389 5.989 0.121939 5.046L0.196939 4.136C0.209939 3.99 0.222939 3.849 0.236939 3.711C0.32348 2.8207 0.721156 1.98942 1.36003 1.36334C1.99891 0.737271 2.83807 0.356503 3.72994 0.288L4.55094 0.224L5.45094 0.163L6.41294 0.106L7.41694 0.0580001C8.27744 0.0206329 9.13863 0.00129529 9.99994 0ZM9.99994 2C9.17494 2 8.32594 2.022 7.49994 2.056L6.52194 2.103L5.58294 2.158L4.70094 2.218L3.89294 2.281C3.46827 2.31113 3.06798 2.49065 2.76303 2.78773C2.45808 3.08481 2.26816 3.48026 2.22694 3.904C2.10994 5.113 1.99994 6.618 1.99994 8C1.99994 9.382 2.10994 10.887 2.22694 12.096C2.31194 12.968 3.00394 13.646 3.89294 13.719L4.70094 13.781L5.58294 13.841L6.52194 13.897L7.49994 13.944C8.32594 13.978 9.17494 14 9.99994 14C10.8249 14 11.6739 13.978 12.4999 13.944L13.4779 13.897L14.4169 13.842L15.2989 13.782L16.1069 13.719C16.5316 13.6889 16.9319 13.5094 17.2368 13.2123C17.5418 12.9152 17.7317 12.5197 17.7729 12.096C17.8899 10.887 17.9999 9.382 17.9999 8C17.9999 6.618 17.8899 5.113 17.7729 3.904C17.7317 3.48026 17.5418 3.08481 17.2368 2.78773C16.9319 2.49065 16.5316 2.31113 16.1069 2.281L15.2989 2.219L14.4169 2.159L13.4779 2.103L12.4999 2.056C11.6671 2.02017 10.8336 2.0015 9.99994 2ZM7.99994 5.575C7.99987 5.47726 8.02369 5.38099 8.06931 5.29455C8.11492 5.20812 8.18097 5.13413 8.26169 5.07903C8.34242 5.02394 8.43538 4.98939 8.5325 4.97841C8.62962 4.96742 8.72795 4.98033 8.81894 5.016L8.89994 5.056L13.0999 7.48C13.1836 7.52826 13.2543 7.59599 13.3062 7.67744C13.3581 7.75889 13.3895 7.85165 13.3978 7.94785C13.4062 8.04405 13.3912 8.14084 13.3541 8.23C13.3171 8.31916 13.259 8.39806 13.1849 8.46L13.0999 8.52L8.89994 10.945C8.8153 10.994 8.71997 11.0216 8.62223 11.0253C8.5245 11.0291 8.42733 11.0089 8.3392 10.9665C8.25106 10.9241 8.17462 10.8608 8.11653 10.7821C8.05845 10.7034 8.02048 10.6117 8.00594 10.515L7.99994 10.425V5.575Z" fill="white"/>
</svg>
